<svg xmlns="http://www.w3.org/2000/svg" viewBox="0 0 298.04 298.14"><defs><style>.cls-1{fill:#e63127;}.cls-2{fill:#fff;}</style></defs><g id="Ebene_2" data-name="Ebene 2"><g id="Ebene_1-2" data-name="Ebene 1"><path class="cls-1" d="M149.09,0c83.06,0,149.4,66.56,149,150.34-.45,82.34-67.11,145.85-145.34,147.74C70.86,300.08-.1,234.93,0,148.86S70.54-.75,149.09,0Z"/><path class="cls-2" d="M149.11,287.37c-73.78.44-138.56-59.26-138.44-138.57.12-79.72,65.6-138.74,139.18-138.26C225.12,11,287.57,73,287.51,148,287.45,225.39,225.91,287.37,149.11,287.37Z"/><path class="cls-1" d="M259.09,149c.16,60.41-49.2,110.13-109.52,110.11A110,110,0,0,1,39,151.8C37.53,90.55,86,39.47,147.81,39A109.73,109.73,0,0,1,259.09,149Z"/><path class="cls-2" d="M237.54,194.45,180.72,161a35.45,35.45,0,0,0,0-23.79l57-33.32C252,134.16,252,164.1,237.54,194.45Z"/><path class="cls-2" d="M143.37,50.11V115.6A34.86,34.86,0,0,0,123,127.53L66.24,94.71C81.86,68.35,115.12,50.27,143.37,50.11Z"/><path class="cls-2" d="M60.54,104.42l56.7,32.81c-2.4,7.89-2.66,15.69.17,23.65l-56.69,33C46.19,168,46,131,60.54,104.42Z"/><path class="cls-2" d="M123.25,170.91a35,35,0,0,0,20.08,11.39v65.45c-23.32,3-66.39-21.79-76.91-44.22l56.32-32.62C122.82,170.86,123,170.91,123.25,170.91Z"/><path class="cls-2" d="M154.92,49.69c32.68,2.75,58,17.54,77.11,44.44l-56.91,33.26a34.91,34.91,0,0,0-20.2-11.66Z"/><path class="cls-2" d="M155,182.49c10.66-3.32,11.94-4.07,20.2-11.75l56.66,33.41c-18.92,26.65-44.23,41.4-76.86,44.15Z"/><path class="cls-2" d="M126,148.82a23.22,23.22,0,0,1,23.5-22.89c12.25.12,22.66,10.7,22.69,23.06a23.1,23.1,0,1,1-46.19-.17Z"/></g></g></svg>